<svg viewBox="0 0 200 200" xmlns="http://www.w3.org/2000/svg">
  <!-- Fondo azul suave con gradiente -->
  <defs>
    <linearGradient id="blueGradient" x1="0%" y1="0%" x2="100%" y2="100%">
      <stop offset="0%" style="stop-color:#60a5fa;stop-opacity:1" />
      <stop offset="100%" style="stop-color:#3b82f6;stop-opacity:1" />
    </linearGradient>
    <linearGradient id="goldGradient" x1="0%" y1="0%" x2="100%" y2="100%">
      <stop offset="0%" style="stop-color:#fbbf24;stop-opacity:1" />
      <stop offset="50%" style="stop-color:#f59e0b;stop-opacity:1" />
      <stop offset="100%" style="stop-color:#b45309;stop-opacity:1" />
    </linearGradient>
  </defs>
  
  <!-- Círculo de fondo con gradiente azul -->
  <circle cx="100" cy="100" r="98" fill="url(#blueGradient)" stroke="#1e40af" stroke-width="2"/>
  
  <!-- Decoración: líneas dorado-cobrizas alrededor -->
  <circle cx="100" cy="100" r="85" fill="none" stroke="url(#goldGradient)" stroke-width="3" opacity="0.8"/>
  <circle cx="100" cy="100" r="75" fill="none" stroke="url(#goldGradient)" stroke-width="2" opacity="0.6"/>
  
  <!-- Líneas dorado-cobrizas decorativas (4 líneas) -->
  <line x1="100" y1="20" x2="100" y2="35" stroke="url(#goldGradient)" stroke-width="3" stroke-linecap="round"/>
  <line x1="180" y1="100" x2="165" y2="100" stroke="url(#goldGradient)" stroke-width="3" stroke-linecap="round"/>
  <line x1="100" y1="180" x2="100" y2="165" stroke="url(#goldGradient)" stroke-width="3" stroke-linecap="round"/>
  <line x1="20" y1="100" x2="35" y2="100" stroke="url(#goldGradient)" stroke-width="3" stroke-linecap="round"/>
  
  <!-- Líneas diagonales decorativas -->
  <line x1="142" y1="30" x2="155" y2="20" stroke="url(#goldGradient)" stroke-width="2.5" stroke-linecap="round" opacity="0.7"/>
  <line x1="170" y1="58" x2="180" y2="45" stroke="url(#goldGradient)" stroke-width="2.5" stroke-linecap="round" opacity="0.7"/>
  <line x1="170" y1="142" x2="180" y2="155" stroke="url(#goldGradient)" stroke-width="2.5" stroke-linecap="round" opacity="0.7"/>
  <line x1="142" y1="170" x2="155" y2="180" stroke="url(#goldGradient)" stroke-width="2.5" stroke-linecap="round" opacity="0.7"/>
  <line x1="58" y1="170" x2="45" y2="180" stroke="url(#goldGradient)" stroke-width="2.5" stroke-linecap="round" opacity="0.7"/>
  <line x1="30" y1="142" x2="20" y2="155" stroke="url(#goldGradient)" stroke-width="2.5" stroke-linecap="round" opacity="0.7"/>
  <line x1="30" y1="58" x2="20" y2="45" stroke="url(#goldGradient)" stroke-width="2.5" stroke-linecap="round" opacity="0.7"/>
  <line x1="58" y1="30" x2="45" y2="20" stroke="url(#goldGradient)" stroke-width="2.5" stroke-linecap="round" opacity="0.7"/>
  
  <!-- Trofeo: el emblema ya no son iniciales de nadie. -->
  <g transform="translate(56 54) scale(3.65)" fill="url(#goldGradient)">
    <path d="M5 4H2.6v2.2A4.4 4.4 0 0 0 6.4 10.6l.5-2A2.4 2.4 0 0 1 4.6 6.2V6H5zM19 4h2.4v2.2a4.4 4.4 0 0 1-3.8 4.4l-.5-2a2.4 2.4 0 0 0 2.3-2.4V6H19z" opacity="0.8"/>
    <path d="M6 2.6h12v6.1a6 6 0 0 1-12 0z"/>
    <path d="M11 14.4h2v3.4h-2zM7.6 19.2h8.8v2.2H7.6z"/>
  </g>
</svg>